<?xml version="1.0" encoding="UTF-8" standalone="no"?>
<!-- Created with Inkscape (http://www.inkscape.org/) -->

<svg
   width="100mm"
   height="100mm"
   viewBox="0 0 100 100"
   version="1.1"
   id="svg5"
   inkscape:version="1.1.2 (0a00cf5339, 2022-02-04)"
   sodipodi:docname="binary.svg"
   inkscape:export-filename="/home/ruggero/Documents/CARTELLE/CV/website/binary.png"
   inkscape:export-xdpi="260.09601"
   inkscape:export-ydpi="260.09601"
   xmlns:inkscape="http://www.inkscape.org/namespaces/inkscape"
   xmlns:sodipodi="http://sodipodi.sourceforge.net/DTD/sodipodi-0.dtd"
   xmlns:xlink="http://www.w3.org/1999/xlink"
   xmlns="http://www.w3.org/2000/svg"
   xmlns:svg="http://www.w3.org/2000/svg">
  <sodipodi:namedview
     id="namedview7"
     pagecolor="#505050"
     bordercolor="#eeeeee"
     borderopacity="1"
     inkscape:pageshadow="0"
     inkscape:pageopacity="0"
     inkscape:pagecheckerboard="0"
     inkscape:document-units="mm"
     showgrid="false"
     inkscape:zoom="2.0824606"
     inkscape:cx="218.97173"
     inkscape:cy="194.72157"
     inkscape:window-width="1920"
     inkscape:window-height="1003"
     inkscape:window-x="0"
     inkscape:window-y="40"
     inkscape:window-maximized="1"
     inkscape:current-layer="layer1" />
  <defs
     id="defs2">
    <linearGradient
       inkscape:collect="always"
       id="linearGradient3585">
      <stop
         style="stop-color:#ffcc00;stop-opacity:1"
         offset="0"
         id="stop3581" />
      <stop
         style="stop-color:#ff6600;stop-opacity:1"
         offset="1"
         id="stop3583" />
    </linearGradient>
    <radialGradient
       inkscape:collect="always"
       xlink:href="#linearGradient3585"
       id="radialGradient3587"
       cx="66.525116"
       cy="52.793358"
       fx="66.525116"
       fy="52.793358"
       r="28.996591"
       gradientTransform="matrix(1.4184464,-0.0118161,0.00722772,0.86764092,-28.21877,4.6540529)"
       gradientUnits="userSpaceOnUse" />
  </defs>
  <g
     inkscape:label="Layer 1"
     inkscape:groupmode="layer"
     id="layer1">
    <circle
       style="fill:#aa4400;stroke:none;stroke-width:1.365;stroke-linecap:round;stroke-opacity:1"
       id="path868"
       cx="49.956524"
       cy="50.000572"
       r="47.384968" />
    <path
       style="fill:url(#radialGradient3587);fill-opacity:1;stroke:#000000;stroke-width:1.365;stroke-linecap:butt;stroke-linejoin:miter;stroke-miterlimit:4;stroke-dasharray:none;stroke-opacity:1"
       d="m 34.466,49.929731 c 3.354775,4.588677 11.629092,18.37157 21.015876,22.47551 9.386787,4.10394 23.121461,2.41482 30.321086,-7.09971 C 93.002583,55.790991 92.395873,43.788818 85.70029,34.947605 79.004707,26.106394 66.045945,23.545167 57.236937,27.152485 48.427928,30.759801 39.265447,42.027122 34.466,49.929731 Z"
       id="path1556-3"
       sodipodi:nodetypes="csssscc" />
    <path
       style="display:inline;fill:#ffc900;fill-opacity:1;stroke:none;stroke-width:1.365;stroke-linecap:butt;stroke-linejoin:miter;stroke-miterlimit:4;stroke-dasharray:none;stroke-opacity:1"
       d="m 18.472447,45.787627 c 3.562595,0.04139 5.104953,2.425409 5.035854,4.947132 -0.0691,2.521725 -2.207731,4.483854 -5.167025,4.496599 -2.959293,0.01275 -4.405214,-2.563657 -4.404659,-4.740881 5.56e-4,-2.177222 1.574384,-4.594714 4.53583,-4.70285 z"
       id="path2433" />
    <path
       style="fill:none;stroke:#000000;stroke-width:1.365;stroke-linecap:butt;stroke-linejoin:miter;stroke-miterlimit:4;stroke-dasharray:none;stroke-dashoffset:0;stroke-opacity:1"
       d="m 7.8973348,49.869751 c 0.047664,-6.754545 7.8850212,-11.657462 13.2767282,-10.327438 5.391707,1.330026 9.799804,5.512229 13.334158,10.346535 3.354775,4.588677 11.359059,18.674068 20.745843,22.778009 9.386787,4.103941 23.121461,2.41482 30.321086,-7.099715 C 92.774771,56.052606 92.168061,44.050434 85.472478,35.209221 78.776895,26.36801 65.818133,23.806783 57.009125,27.414101 48.200116,31.021417 39.037635,42.288738 34.238188,50.191347 29.438742,58.093956 26.04507,60.950885 18.490045,61.063166 10.935021,61.175445 8.0854311,54.029771 7.8973348,49.869751 Z"
       id="path1556"
       sodipodi:nodetypes="cssssssssc"
       inkscape:export-filename="/home/ruggero/Documents/CARTELLE/CV/website/path1556.png"
       inkscape:export-xdpi="260.09601"
       inkscape:export-ydpi="260.09601" />
  </g>
</svg>
