<?xml version="1.0" encoding="UTF-8" standalone="no"?>
<!-- Created with Inkscape (http://www.inkscape.org/) -->

<svg
   width="40"
   height="40"
   viewBox="0 0 10.583333 10.583333"
   version="1.1"
   id="svg5"
   inkscape:version="1.4.4 (1:1.4.4+202605061432+dcaf3e7d9e)"
   sodipodi:docname="binary_logo.svg"
   inkscape:export-filename="/home/ruggero/Documents/CARTELLE/CV/website/binary.png"
   inkscape:export-xdpi="260.09601"
   inkscape:export-ydpi="260.09601"
   xmlns:inkscape="http://www.inkscape.org/namespaces/inkscape"
   xmlns:sodipodi="http://sodipodi.sourceforge.net/DTD/sodipodi-0.dtd"
   xmlns="http://www.w3.org/2000/svg"
   xmlns:svg="http://www.w3.org/2000/svg">
  <sodipodi:namedview
     id="namedview7"
     pagecolor="#505050"
     bordercolor="#eeeeee"
     borderopacity="1"
     inkscape:pageshadow="0"
     inkscape:pageopacity="0"
     inkscape:pagecheckerboard="0"
     inkscape:document-units="mm"
     showgrid="false"
     inkscape:zoom="11.313709"
     inkscape:cx="7.5572037"
     inkscape:cy="24.704543"
     inkscape:window-width="1920"
     inkscape:window-height="1121"
     inkscape:window-x="299"
     inkscape:window-y="1482"
     inkscape:window-maximized="1"
     inkscape:current-layer="layer1"
     inkscape:showpageshadow="0"
     inkscape:deskcolor="#d1d1d1" />
  <defs
     id="defs2" />
  <g
     inkscape:label="Layer 1"
     inkscape:groupmode="layer"
     id="layer1">
    <path
       style="display:inline;fill:#ffffff;fill-opacity:1;stroke:none;stroke-width:0.152435;stroke-linecap:butt;stroke-linejoin:miter;stroke-miterlimit:4;stroke-dasharray:none;stroke-opacity:1"
       d="M 8.6639215,5.7621425 C 8.2660725,5.7575125 8.0938312,5.4912875 8.1015478,5.2096767 8.1092644,4.9280657 8.3480938,4.708947 8.6785698,4.7075238 9.0090457,4.7060999 9.1705174,4.9938174 9.1704554,5.2369566 9.1703934,5.4800955 8.9946378,5.7500665 8.6639215,5.7621425 Z"
       id="path2433" />
    <path
       style="fill:none;stroke:#ffffff;stroke-width:0.152435;stroke-linecap:butt;stroke-linejoin:miter;stroke-miterlimit:4;stroke-dasharray:none;stroke-dashoffset:0;stroke-opacity:1"
       d="M 9.8448859,5.3062756 C 9.8395631,6.0605823 8.9643345,6.6081103 8.3622212,6.4595812 7.7601081,6.311052 7.2678385,5.8440088 6.8731432,5.3041428 6.4985023,4.7917073 5.6046324,3.2187361 4.5563731,2.7604327 3.5081135,2.3021295 1.9743083,2.4907602 1.1702978,3.5532859 0.36628731,4.6158117 0.43404131,5.9561417 1.1817636,6.9434748 1.9294856,7.9308076 3.3766417,8.21683 4.3603786,7.8139866 5.3441154,7.4111433 6.3673257,6.152877 6.9032989,5.2703616 7.4392719,4.387846 7.8182567,4.0688014 8.661956,4.0562627 9.5056556,4.0437241 9.8238804,4.8417097 9.8448859,5.3062756 Z"
       id="path1556"
       sodipodi:nodetypes="cssssssssc"
       inkscape:export-filename="/home/ruggero/Documents/CARTELLE/CV/website/path1556.png"
       inkscape:export-xdpi="260.09601"
       inkscape:export-ydpi="260.09601" />
  </g>
</svg>
