<?xml version="1.0" encoding="UTF-8" standalone="no"?>
<!-- Created with Inkscape (http://www.inkscape.org/) -->

<svg
   width="100.0px"
   height="100.0px"
   viewBox="0 0 100.0 100.0"
   version="1.1"
   id="SVGRoot"
   sodipodi:docname="popIII.svg"
   inkscape:version="1.1.2 (0a00cf5339, 2022-02-04)"
   inkscape:export-filename="/home/ruggero/Documents/CARTELLE/CV/website/popIII.png"
   inkscape:export-xdpi="1270.4438"
   inkscape:export-ydpi="1270.4438"
   xmlns:inkscape="http://www.inkscape.org/namespaces/inkscape"
   xmlns:sodipodi="http://sodipodi.sourceforge.net/DTD/sodipodi-0.dtd"
   xmlns="http://www.w3.org/2000/svg"
   xmlns:svg="http://www.w3.org/2000/svg">
  <sodipodi:namedview
     id="namedview21"
     pagecolor="#505050"
     bordercolor="#eeeeee"
     borderopacity="1"
     inkscape:pageshadow="0"
     inkscape:pageopacity="0"
     inkscape:pagecheckerboard="0"
     inkscape:document-units="px"
     showgrid="true"
     inkscape:zoom="4.0416191"
     inkscape:cx="17.814643"
     inkscape:cy="65.196644"
     inkscape:window-width="1920"
     inkscape:window-height="1003"
     inkscape:window-x="0"
     inkscape:window-y="40"
     inkscape:window-maximized="1"
     inkscape:current-layer="layer1"
     inkscape:snap-global="true"
     inkscape:snap-object-midpoints="false"
     inkscape:snap-grids="false">
    <inkscape:grid
       type="xygrid"
       id="grid27" />
  </sodipodi:namedview>
  <defs
     id="defs16" />
  <g
     inkscape:label="Layer 1"
     inkscape:groupmode="layer"
     id="layer1">
    <path
       style="fill:#000040;fill-opacity:1"
       id="path207"
       sodipodi:type="arc"
       sodipodi:cx="50.090408"
       sodipodi:cy="50.133625"
       sodipodi:rx="48.36105"
       sodipodi:ry="48.36105"
       sodipodi:start="0"
       sodipodi:end="6.2409134"
       sodipodi:open="true"
       sodipodi:arc-type="arc"
       d="M 98.451458,50.133625 A 48.36105,48.36105 0 0 1 50.601477,98.491974 48.36105,48.36105 0 0 1 1.7401604,51.155705 48.36105,48.36105 0 0 1 48.557431,1.7968781 48.36105,48.36105 0 0 1 98.408256,48.089922" />
    <path
       sodipodi:type="star"
       style="fill:#7effff;fill-opacity:1"
       id="path2920"
       inkscape:flatsided="false"
       sodipodi:sides="50"
       sodipodi:cx="32.575424"
       sodipodi:cy="32.575424"
       sodipodi:r1="19.346304"
       sodipodi:r2="18.240673"
       sodipodi:arg1="0.40138377"
       sodipodi:arg2="0.46421562"
       inkscape:rounded="0.15"
       inkscape:randomized="0.03"
       d="m 50.602224,40.580901 c -0.09107,0.226618 -1.540608,-0.117364 -1.637679,0.101159 -0.09707,0.218524 0.999976,1.791163 0.872517,1.996415 -0.127458,0.205252 -1.652676,0.253993 -1.780696,0.459733 -0.128019,0.205739 -0.114278,1.23956 -0.253386,1.437671 -0.139107,0.19811 -1.798207,-0.150568 -1.96479,0.02632 -0.166584,0.176885 0.809337,1.728625 0.636288,1.901746 -0.173048,0.173121 -1.638258,-0.771549 -1.820248,-0.611049 -0.18199,0.160501 -0.02951,1.820799 -0.220666,1.964985 -0.191153,0.144187 -0.796816,-0.169987 -0.996312,-0.02616 -0.199497,0.143831 -0.638776,1.61908 -0.842642,1.750213 -0.203865,0.131133 -1.145751,-0.686287 -1.364092,-0.58255 -0.218341,0.103736 -0.820567,0.633086 -1.045258,0.724607 -0.224691,0.09152 -1.593961,-0.321623 -1.816394,-0.230524 -0.222433,0.0911 -0.338977,1.9381 -0.568658,2.012174 -0.22968,0.07408 -1.366213,-0.653535 -1.600316,-0.590565 -0.234102,0.06297 -0.189769,1.207125 -0.428815,1.253554 -0.239046,0.04643 -0.841841,-0.904715 -1.083054,-0.874237 -0.241214,0.03048 -0.710887,1.050139 -0.955438,1.049285 -0.244551,-8.55e-4 -1.118812,-1.313258 -1.364448,-1.318245 -0.245636,-0.005 -1.658494,0.905685 -1.901927,0.887682 -0.243433,-0.018 -0.139527,-1.287592 -0.376387,-1.327807 -0.236859,-0.04022 -0.984888,0.771179 -1.222078,0.708241 -0.23719,-0.06294 -0.85605,-1.236608 -1.090454,-1.309816 -0.234404,-0.07321 -1.582232,0.614384 -1.815306,0.540341 -0.233074,-0.07404 -0.688797,-0.958738 -0.911778,-1.059926 -0.22298,-0.101188 -1.054096,0.760521 -1.271775,0.646816 -0.217679,-0.113705 0.297545,-1.360593 0.08832,-1.485204 -0.209226,-0.124611 -2.301499,0.505813 -2.506456,0.378387 -0.204956,-0.127425 0.003,-1.962081 -0.181028,-2.116781 -0.183999,-0.154699 -0.752353,0.503848 -0.927291,0.338628 -0.174939,-0.16522 0.232893,-1.179918 0.06934,-1.354911 -0.163551,-0.174992 -1.461534,0.15995 -1.629707,-0.0183 -0.168173,-0.178253 -0.07887,-2.163926 -0.233276,-2.355466 -0.15441,-0.191539 -1.52285,0.522935 -1.662206,0.326846 -0.139356,-0.19609 0.157636,-1.65802 0.03654,-1.870191 -0.121099,-0.212172 -1.364781,0.237136 -1.48062,0.02266 -0.115838,-0.214474 0.487261,-2.24087 0.387972,-2.459219 -0.09929,-0.218349 -1.668956,-0.180866 -1.741056,-0.409322 -0.0721,-0.228455 1.596025,-1.34972 1.516381,-1.579304 -0.07964,-0.229584 -1.863021,-0.195425 -1.921532,-0.427317 -0.05851,-0.231891 0.707915,-0.939594 0.65911,-1.174557 -0.04881,-0.234964 -0.484764,-1.064291 -0.518054,-1.303945 -0.03329,-0.239654 0.537832,-1.348536 0.53351,-1.590899 -0.0043,-0.242364 -1.32165,-0.782859 -1.324163,-1.028575 -0.0025,-0.245716 1.121393,-1.114451 1.146545,-1.357995 0.02515,-0.243544 -0.268304,-0.702865 -0.223799,-0.944425 0.04451,-0.24156 0.338352,-0.348445 0.39747,-0.582088 0.05912,-0.233643 -0.56747,-1.097004 -0.490792,-1.326273 0.07668,-0.22927 1.156403,-1.219841 1.230394,-1.450803 0.07399,-0.230961 0.09994,-0.75783 0.192546,-0.983361 0.09261,-0.22553 1.178451,-0.56075 1.277919,-0.783798 0.09947,-0.223048 -0.166663,-1.040594 -0.05158,-1.250931 0.115081,-0.210337 0.484722,-0.130403 0.619936,-0.331206 0.135215,-0.200803 -0.414048,-2.095828 -0.270404,-2.293341 0.143643,-0.197513 2.261721,0.216866 2.425967,0.03653 0.164246,-0.18034 -0.744123,-1.06302 -0.573694,-1.237447 0.17043,-0.174426 1.578036,-0.79329 1.757691,-0.956974 0.179654,-0.163685 0.09587,-1.404672 0.283224,-1.55774 0.187355,-0.153069 0.804401,1.202003 0.996294,1.058407 0.191893,-0.143596 0.694681,-2.121514 0.905236,-2.246692 0.210555,-0.125178 1.066727,0.77711 1.281206,0.663615 0.214479,-0.113495 0.317246,-2.000044 0.542973,-2.096837 0.225726,-0.09679 2.046014,1.596094 2.275217,1.510645 0.229203,-0.08545 0.400789,-1.313186 0.63243,-1.376125 0.23164,-0.06294 1.365619,0.635423 1.600315,0.590565 0.234696,-0.04486 0.185885,-1.220776 0.428816,-1.253554 0.242931,-0.03278 0.78332,0.372082 1.020478,0.338465 0.237157,-0.03362 1.413795,-1.008775 1.656234,-1.011851 0.242438,-0.0031 0.885014,1.605955 1.128646,1.606873 0.243632,9.17e-4 0.738421,-1.330415 0.976932,-1.304837 0.238511,0.02558 0.660012,0.761638 0.898964,0.793895 0.238952,0.03226 0.982282,-0.749072 1.222077,-0.708242 0.239796,0.04083 0.923284,1.801123 1.151855,1.873838 0.228571,0.07271 0.999553,-0.743334 1.230134,-0.670728 0.230581,0.07261 0.624185,0.66306 0.850414,0.752958 0.226229,0.0899 1.637977,-0.879054 1.856911,-0.773483 0.218934,0.105571 0.3825,1.859652 0.593326,1.982699 0.210827,0.123046 1.146216,-0.386955 1.345696,-0.24986 0.19948,0.137095 0.475154,1.366173 0.658968,1.519008 0.183813,0.152835 1.390427,0.133994 1.566687,0.295563 0.17626,0.161568 -0.250516,1.092069 -0.07054,1.254633 0.17998,0.162564 1.993268,-0.593138 2.153479,-0.415331 0.16021,0.177807 -1.013199,2.438403 -0.864963,2.634184 0.148236,0.195782 1.167545,0.108593 1.301288,0.30807 0.133743,0.199477 0.600676,1.079057 0.726836,1.282619 0.126161,0.203562 0.449734,0.244985 0.555588,0.463908 0.105853,0.218922 -0.614453,1.1675 -0.513126,1.387674 0.101328,0.220173 2.235924,0.212152 2.325034,0.439431 0.08911,0.227278 -1.580981,1.575857 -1.515167,1.808108 0.06581,0.232252 1.863897,0.188942 1.921531,0.427317 0.05763,0.238374 -1.210235,1.337619 -1.181705,1.579943 0.02853,0.242324 1.712461,0.56543 1.741428,0.807466 0.02897,0.242036 -1.247873,1.314884 -1.234307,1.553466 0.01357,0.238581 1.311992,0.474162 1.305066,0.713438 -0.0069,0.239276 -1.173386,1.025606 -1.190007,1.265886 -0.01662,0.24028 1.018123,0.892748 0.987117,1.13205 -0.03101,0.239302 -1.055149,1.726016 -1.098229,1.962487 -0.04308,0.23647 0.03146,0.340207 -0.0318,0.57088 -0.06326,0.230673 -0.638032,0.714653 -0.708993,0.945139 -0.07096,0.230486 0.599324,1.954956 0.508251,2.181573 z"
       transform="translate(17.53872,17.42793)" />
    <circle
       style="fill:#d2ffff;fill-opacity:1;stroke-width:0.651509"
       id="path109"
       cx="50.114143"
       cy="50.003353"
       r="14.658941" />
    <path
       sodipodi:type="star"
       style="fill:#cbffff;fill-opacity:1"
       id="path1434"
       inkscape:flatsided="false"
       sodipodi:sides="6"
       sodipodi:cx="19.358572"
       sodipodi:cy="33.932598"
       sodipodi:r1="8.1977234"
       sodipodi:r2="1.2296585"
       sodipodi:arg1="1.5725821"
       sodipodi:arg2="2.0961809"
       inkscape:rounded="0"
       inkscape:randomized="0"
       d="m 19.343933,42.130308 -0.602091,-7.133894 -6.490015,3.022361 5.877088,-4.088373 -5.862449,-4.109337 6.479179,3.045521 0.627566,-7.131698 0.602091,7.133894 6.490015,-3.022361 -5.877088,4.088373 5.862449,4.109337 -6.479179,-3.045521 z"
       inkscape:transform-center-x="-0.0355423"
       inkscape:transform-center-y="0.067346612" />
    <path
       sodipodi:type="star"
       style="fill:#cbffff;fill-opacity:1"
       id="path2259"
       inkscape:flatsided="false"
       sodipodi:sides="4"
       sodipodi:cx="19.358572"
       sodipodi:cy="33.932598"
       sodipodi:r1="6.8262224"
       sodipodi:r2="0.47783557"
       sodipodi:arg1="-0.01235926"
       sodipodi:arg2="0.7730389"
       inkscape:rounded="-0.0015144594"
       inkscape:randomized="0"
       d="m 26.184273,33.848233 c -1.22e-4,-0.0098 -6.490541,0.425087 -6.48367,0.418044 0.0069,-0.007 -0.267505,6.492144 -0.257666,6.492022 0.0098,-1.21e-4 -0.425087,-6.490541 -0.418044,-6.48367 0.007,0.0069 -6.492144,-0.267505 -6.492022,-0.257666 1.22e-4,0.0098 6.490541,-0.425087 6.48367,-0.418044 -0.0069,0.007 0.267505,-6.492144 0.257666,-6.492022 -0.0098,1.22e-4 0.425087,6.490541 0.418044,6.48367 -0.007,-0.0069 6.492144,0.267505 6.492022,0.257666 z" />
    <path
       sodipodi:type="star"
       style="fill:#cbffff;fill-opacity:1"
       id="path1434-7"
       inkscape:flatsided="false"
       sodipodi:sides="6"
       sodipodi:cx="19.358572"
       sodipodi:cy="33.932598"
       sodipodi:r1="8.1977234"
       sodipodi:r2="1.2296585"
       sodipodi:arg1="1.5725821"
       sodipodi:arg2="2.0961809"
       inkscape:rounded="0"
       inkscape:randomized="0"
       inkscape:transform-center-x="-0.024217205"
       inkscape:transform-center-y="0.045887358"
       d="m 19.343933,42.130308 -0.602091,-7.133894 -6.490015,3.022361 5.877088,-4.088373 -5.862449,-4.109337 6.479179,3.045521 0.627566,-7.131698 0.602091,7.133894 6.490015,-3.022361 -5.877088,4.088373 5.862449,4.109337 -6.479179,-3.045521 z"
       transform="matrix(0.68135717,0,0,0.68135717,59.306967,56.547508)" />
    <path
       sodipodi:type="star"
       style="fill:#cbffff;fill-opacity:1"
       id="path2259-5"
       inkscape:flatsided="false"
       sodipodi:sides="4"
       sodipodi:cx="19.358572"
       sodipodi:cy="33.932598"
       sodipodi:r1="6.8262224"
       sodipodi:r2="0.47783557"
       sodipodi:arg1="-0.01235926"
       sodipodi:arg2="0.7730389"
       inkscape:rounded="-0.0015144594"
       inkscape:randomized="0"
       d="m 26.184273,33.848233 c -1.22e-4,-0.0098 -6.490541,0.425087 -6.48367,0.418044 0.0069,-0.007 -0.267505,6.492144 -0.257666,6.492022 0.0098,-1.21e-4 -0.425087,-6.490541 -0.418044,-6.48367 0.007,0.0069 -6.492144,-0.267505 -6.492022,-0.257666 1.22e-4,0.0098 6.490541,-0.425087 6.48367,-0.418044 -0.0069,0.007 0.267505,-6.492144 0.257666,-6.492022 -0.0098,1.22e-4 0.425087,6.490541 0.418044,6.48367 -0.007,-0.0069 6.492144,0.267505 6.492022,0.257666 z"
       transform="matrix(0.68135717,0,0,0.68135717,59.306967,56.547508)" />
    <path
       sodipodi:type="star"
       style="fill:#cbffff;fill-opacity:1"
       id="path1434-7-3"
       inkscape:flatsided="false"
       sodipodi:sides="6"
       sodipodi:cx="19.358572"
       sodipodi:cy="33.932598"
       sodipodi:r1="8.1977234"
       sodipodi:r2="1.2296585"
       sodipodi:arg1="1.5725821"
       sodipodi:arg2="2.0961809"
       inkscape:rounded="0"
       inkscape:randomized="0"
       inkscape:transform-center-x="-0.016574944"
       inkscape:transform-center-y="0.031407476"
       transform="matrix(0.46635108,0,0,0.46635108,47.526473,-2.3736946)"
       d="m 19.343933,42.130308 -0.602091,-7.133894 -6.490015,3.022361 5.877088,-4.088373 -5.862449,-4.109337 6.479179,3.045521 0.627566,-7.131698 0.602091,7.133894 6.490015,-3.022361 -5.877088,4.088373 5.862449,4.109337 -6.479179,-3.045521 z" />
    <path
       sodipodi:type="star"
       style="fill:#cbffff;fill-opacity:1"
       id="path2259-5-5"
       inkscape:flatsided="false"
       sodipodi:sides="4"
       sodipodi:cx="19.358572"
       sodipodi:cy="33.932598"
       sodipodi:r1="6.8262224"
       sodipodi:r2="0.47783557"
       sodipodi:arg1="-0.01235926"
       sodipodi:arg2="0.7730389"
       inkscape:rounded="-0.0015144594"
       inkscape:randomized="0"
       transform="matrix(0.46635108,0,0,0.46635108,47.526473,-2.3736946)"
       d="m 26.184273,33.848233 c -1.22e-4,-0.0098 -6.490541,0.425087 -6.48367,0.418044 0.0069,-0.007 -0.267505,6.492144 -0.257666,6.492022 0.0098,-1.21e-4 -0.425087,-6.490541 -0.418044,-6.48367 0.007,0.0069 -6.492144,-0.267505 -6.492022,-0.257666 1.22e-4,0.0098 6.490541,-0.425087 6.48367,-0.418044 -0.0069,0.007 0.267505,-6.492144 0.257666,-6.492022 -0.0098,1.22e-4 0.425087,6.490541 0.418044,6.48367 -0.007,-0.0069 6.492144,0.267505 6.492022,0.257666 z" />
  </g>
</svg>
